# Blender 4.0.2
# www.blender.org
mtllib axis.mtl
o Cube.001
v 0.000000 -0.050000 0.050000 0.7608 0.2235 0.3019
v 0.000000 -0.050000 -0.050000 0.7608 0.2235 0.3019
v 0.000000 0.050000 0.050000 0.7608 0.2235 0.3019
v 1.000000 -0.050000 0.050000 0.7608 0.2235 0.3019
v 1.000000 -0.050000 -0.050000 0.7608 0.2235 0.3019
v 1.000000 0.050000 0.050000 0.7608 0.2235 0.3019
v 1.000000 0.050000 -0.050000 0.7608 0.2235 0.3019
v 0.000000 0.050000 -0.050000 0.7608 0.2235 0.3019
v 0.050000 -0.000000 -0.050000 0.1804 0.5255 0.9176
v 0.050000 -0.000000 0.050000 0.1804 0.5255 0.9176
v -0.050000 0.000000 -0.050000 0.1804 0.5255 0.9176
v -0.050000 0.000000 0.050000 0.1804 0.5255 0.9176
v 0.050000 1.000000 -0.050000 0.1804 0.5255 0.9176
v 0.050000 1.000000 0.050000 0.1804 0.5255 0.9176
v -0.050000 1.000000 -0.050000 0.1804 0.5255 0.9176
v -0.050000 1.000000 0.050000 0.1804 0.5255 0.9176
v 0.050000 -0.050000 -0.000000 0.4785 0.7254 0.0823
v -0.050000 -0.050000 0.000000 0.4785 0.7254 0.0823
v 0.050000 0.050000 -0.000000 0.4785 0.7254 0.0823
v 0.050000 -0.050000 -1.000000 0.4785 0.7254 0.0823
v -0.050000 -0.050000 -1.000000 0.4785 0.7254 0.0823
v 0.050000 0.050000 -1.000000 0.4785 0.7254 0.0823
v -0.050000 0.050000 -1.000000 0.4785 0.7254 0.0823
v -0.050000 0.050000 0.000000 0.4785 0.7254 0.0823
vn -0.0000 -1.0000 -0.0000
vn -1.0000 -0.0000 -0.0000
vn -0.0000 -0.0000 1.0000
vn 1.0000 -0.0000 -0.0000
vn -0.0000 1.0000 -0.0000
vn -0.0000 -0.0000 -1.0000
vt 0.125000 0.500000
vt 0.375000 0.500000
vt 0.375000 0.750000
vt 0.125000 0.750000
vt 0.375000 0.000000
vt 0.625000 0.000000
vt 0.625000 0.250000
vt 0.375000 0.250000
vt 0.625000 0.750000
vt 0.625000 1.000000
vt 0.375000 1.000000
vt 0.625000 0.500000
vt 0.875000 0.500000
vt 0.875000 0.750000
s 0
f 2/1/1 5/2/1 4/3/1 1/4/1
f 1/5/2 3/6/2 8/7/2 2/8/2
f 4/3/3 6/9/3 3/10/3 1/11/3
f 5/2/4 7/12/4 6/9/4 4/3/4
f 7/12/5 8/13/5 3/14/5 6/9/5
f 2/8/6 8/7/6 7/12/6 5/2/6
f 9/5/1 10/6/1 12/7/1 11/8/1
f 11/8/2 12/7/2 16/12/2 15/2/2
f 15/2/5 16/12/5 14/9/5 13/3/5
f 13/3/4 14/9/4 10/10/4 9/11/4
f 11/1/6 15/2/6 13/3/6 9/4/6
f 16/12/3 12/13/3 10/14/3 14/9/3
f 18/1/1 21/2/1 20/3/1 17/4/1
f 17/5/3 19/6/3 24/7/3 18/8/3
f 20/3/4 22/9/4 19/10/4 17/11/4
f 21/2/6 23/12/6 22/9/6 20/3/6
f 23/12/5 24/13/5 19/14/5 22/9/5
f 18/8/2 24/7/2 23/12/2 21/2/2
